<svg width="795" height="795" viewBox="0 0 795 795" fill="none" xmlns="http://www.w3.org/2000/svg">
<path d="M587.827 83.8533C616.187 53.9067 663.027 44.1467 701.253 59.2533C732.4 71.08 757.2 98.3733 765.613 130.68C771.347 151.627 770.333 174.213 762.987 194.667C758.413 207.093 751.067 218.2 744.44 229.587C697.427 309.293 650.44 389.013 603.413 468.707C601.88 471.333 600.68 474.227 598.4 476.32C607.653 451.453 614.227 425.267 614.04 398.587C615.6 346.853 596.4 295.12 562.693 256.013C556.147 247.933 548.827 240.44 540.627 234.013C530.747 225.733 520.467 217.787 509.053 211.693L508.76 211.493C526.333 182.68 542.947 153.267 560.173 124.227C568.613 110.293 575.707 95.12 587.827 83.8533Z" fill="#48CAEC"/>
<path d="M377.773 183.853C422.773 178.467 469.787 188.107 508.76 211.493L509.053 211.693C461.773 291.973 415.027 372.587 367.933 453C343.68 494.653 319.213 536.187 295.067 577.907C237 545.507 197.507 483.227 190.773 417.28C188.613 394.853 189.453 372 194.32 349.947C197.88 333.267 203.707 317.133 210.84 301.653C223 278.173 238.56 256.213 258.213 238.413C291.027 208.307 333.48 188.76 377.773 183.853Z" fill="#F13A59"/>
<path d="M509.053 211.693C520.467 217.787 530.747 225.733 540.627 234.013C548.827 240.44 556.147 247.933 562.693 256.013C596.4 295.12 615.6 346.853 614.04 398.587C614.227 425.267 607.653 451.453 598.4 476.32C590.507 493.227 581.587 509.787 570.027 524.52C538.88 565.52 491.96 593.92 441.413 603.4C393.307 612.853 342.093 604.453 299.24 580.6C297.8 579.773 296.32 579.027 294.8 578.373L295.067 577.907C319.213 536.187 343.68 494.653 367.933 453C415.027 372.587 461.773 291.973 509.053 211.693Z" fill="#218EED"/>
<path d="M42.6666 589.28C98.7866 493.44 154.56 397.4 210.84 301.653C203.707 317.133 197.88 333.267 194.32 349.947C189.453 372 188.613 394.853 190.773 417.28C197.507 483.227 237 545.507 295.067 577.907L294.8 578.373C273.2 615.907 251.147 653.2 229.36 690.64C222.12 703.707 213.84 716.587 202.213 726.187C177.4 748.307 141.693 757.52 109.32 750.027C88.8133 745.413 69.6 734.693 55.2266 719.32C29.5066 692.747 19.5066 652.053 30.36 616.667C33.04 606.96 37.5066 597.88 42.6666 589.28Z" fill="#FF9C00"/>
</svg>
